# xmcd CD database file
#
# Track frame offsets:
#	150
#	16128
#	30682
#	46928
#	68591
#	84408
#	101242
#	116544
#	130597
#
# Disc length: 2013 seconds
#
# Revision: 0
# Processed by: cddbd v1.5.2PL0 Copyright (c) Steve Scherf et al.
# Submitted via: CDex 1.70beta2
#
DISCID=6707db09
DTITLE=Jimmy McGriff - Griive Grease
DYEAR=2003
DGENRE=Jazz
TTITLE0=Griive Grease
TTITLE1=The Bird
TTITLE2=Plain Brown Bag
TTITLE3=There Will Never Be Anoter You
TTITLE4=Canadian Sunset
TTITLE5=Mr.Lucky
TTITLE6=Monglow
TTITLE7=Red Sails In The Sunset
TTITLE8=Secret Love
EXTD=YEAR: 2003
EXTT0=
EXTT1=
EXTT2=
EXTT3=
EXTT4=
EXTT5=
EXTT6=
EXTT7=
EXTT8=
PLAYORDER=
